<svg width="254" height="40" viewBox="0 0 254 40" fill="none" xmlns="http://www.w3.org/2000/svg">
<path d="M243.714 32.36C242.202 32.36 240.834 32.108 239.61 31.604C238.386 31.076 237.342 30.368 236.478 29.48C235.614 28.568 234.942 27.536 234.462 26.384C234.006 25.208 233.778 23.972 233.778 22.676C233.778 20.876 234.174 19.232 234.966 17.744C235.782 16.256 236.934 15.068 238.422 14.18C239.934 13.268 241.71 12.812 243.75 12.812C245.814 12.812 247.578 13.268 249.042 14.18C250.506 15.068 251.622 16.256 252.39 17.744C253.182 19.208 253.578 20.792 253.578 22.496C253.578 22.784 253.566 23.084 253.542 23.396C253.518 23.684 253.494 23.924 253.47 24.116H238.89C238.986 25.076 239.262 25.916 239.718 26.636C240.198 27.356 240.798 27.908 241.518 28.292C242.262 28.652 243.054 28.832 243.894 28.832C244.854 28.832 245.754 28.604 246.594 28.148C247.458 27.668 248.046 27.044 248.358 26.276L252.498 27.428C252.042 28.388 251.382 29.24 250.518 29.984C249.678 30.728 248.682 31.316 247.53 31.748C246.378 32.156 245.106 32.36 243.714 32.36ZM238.782 21.056H248.646C248.55 20.096 248.274 19.268 247.818 18.572C247.386 17.852 246.81 17.3 246.09 16.916C245.37 16.508 244.566 16.304 243.678 16.304C242.814 16.304 242.022 16.508 241.302 16.916C240.606 17.3 240.03 17.852 239.574 18.572C239.142 19.268 238.878 20.096 238.782 21.056Z" fill="white"/>
<path d="M223.605 32.36C222.069 32.36 220.689 32.108 219.465 31.604C218.241 31.076 217.197 30.356 216.333 29.444C215.469 28.508 214.797 27.452 214.317 26.276C213.861 25.1 213.633 23.864 213.633 22.568C213.633 20.792 214.029 19.172 214.821 17.708C215.637 16.22 216.789 15.032 218.277 14.144C219.765 13.256 221.529 12.812 223.569 12.812C225.609 12.812 227.361 13.256 228.825 14.144C230.289 15.032 231.381 16.196 232.101 17.636L227.385 19.076C226.977 18.38 226.437 17.852 225.765 17.492C225.093 17.108 224.349 16.916 223.533 16.916C222.621 16.916 221.781 17.156 221.013 17.636C220.269 18.092 219.681 18.752 219.249 19.616C218.817 20.456 218.601 21.44 218.601 22.568C218.601 23.672 218.817 24.656 219.249 25.52C219.705 26.36 220.305 27.032 221.049 27.536C221.793 28.016 222.621 28.256 223.533 28.256C224.109 28.256 224.649 28.16 225.153 27.968C225.681 27.776 226.149 27.512 226.557 27.176C226.965 26.84 227.265 26.456 227.457 26.024L232.173 27.464C231.741 28.4 231.105 29.24 230.265 29.984C229.449 30.728 228.477 31.316 227.349 31.748C226.245 32.156 224.997 32.36 223.605 32.36Z" fill="white"/>
<path d="M205.645 32V13.136H210.469V32H205.645ZM205.645 10.508V5.71997H210.469V10.508H205.645Z" fill="white"/>
<path d="M190.928 32L183.98 13.136H188.984L193.736 27.608L198.524 13.136H203.096L196.184 32H190.928Z" fill="white"/>
<path d="M183.162 17.3119C181.698 17.3119 180.39 17.5999 179.238 18.1759C178.086 18.7279 177.258 19.5319 176.754 20.5879V31.9999H171.93V13.1359H176.358V17.1679C177.03 15.8719 177.882 14.8519 178.914 14.1079C179.946 13.3639 181.038 12.9559 182.19 12.8839C182.454 12.8839 182.658 12.8839 182.802 12.8839C182.946 12.8839 183.066 12.8959 183.162 12.9199V17.3119Z" fill="white"/>
<path d="M159.128 32.36C157.616 32.36 156.248 32.108 155.024 31.604C153.8 31.076 152.756 30.368 151.892 29.48C151.028 28.568 150.356 27.536 149.876 26.384C149.42 25.208 149.192 23.972 149.192 22.676C149.192 20.876 149.588 19.232 150.38 17.744C151.196 16.256 152.348 15.068 153.836 14.18C155.348 13.268 157.124 12.812 159.164 12.812C161.228 12.812 162.992 13.268 164.456 14.18C165.92 15.068 167.036 16.256 167.804 17.744C168.596 19.208 168.992 20.792 168.992 22.496C168.992 22.784 168.98 23.084 168.956 23.396C168.932 23.684 168.908 23.924 168.884 24.116H154.304C154.4 25.076 154.676 25.916 155.132 26.636C155.612 27.356 156.212 27.908 156.932 28.292C157.676 28.652 158.468 28.832 159.308 28.832C160.268 28.832 161.168 28.604 162.008 28.148C162.872 27.668 163.46 27.044 163.772 26.276L167.912 27.428C167.456 28.388 166.796 29.24 165.932 29.984C165.092 30.728 164.096 31.316 162.944 31.748C161.792 32.156 160.52 32.36 159.128 32.36ZM154.196 21.056H164.06C163.964 20.096 163.688 19.268 163.232 18.572C162.8 17.852 162.224 17.3 161.504 16.916C160.784 16.508 159.98 16.304 159.092 16.304C158.228 16.304 157.436 16.508 156.716 16.916C156.02 17.3 155.444 17.852 154.988 18.572C154.556 19.268 154.292 20.096 154.196 21.056Z" fill="white"/>
<path d="M143.997 13.136C143.829 12.968 143.517 12.74 143.061 12.452C142.629 12.164 142.089 11.888 141.441 11.624C140.817 11.36 140.133 11.132 139.389 10.94C138.645 10.724 137.889 10.616 137.121 10.616C135.777 10.616 134.757 10.868 134.061 11.372C133.389 11.876 133.053 12.584 133.053 13.496C133.053 14.192 133.269 14.744 133.701 15.152C134.133 15.56 134.781 15.908 135.645 16.196C136.509 16.484 137.589 16.796 138.885 17.132C140.565 17.54 142.017 18.044 143.241 18.644C144.489 19.22 145.437 19.988 146.085 20.948C146.757 21.884 147.093 23.132 147.093 24.692C147.093 26.06 146.841 27.236 146.337 28.22C145.833 29.18 145.137 29.96 144.249 30.56C143.361 31.16 142.353 31.604 141.225 31.892C140.097 32.156 138.897 32.288 137.625 32.288C136.353 32.288 135.081 32.156 133.809 31.892C132.537 31.628 131.313 31.256 130.137 30.776C128.961 30.272 127.881 29.672 126.897 28.976L129.093 24.692C129.309 24.908 129.693 25.196 130.245 25.556C130.797 25.892 131.469 26.24 132.261 26.6C133.053 26.936 133.917 27.224 134.853 27.464C135.789 27.704 136.737 27.824 137.697 27.824C139.041 27.824 140.061 27.596 140.757 27.14C141.453 26.684 141.801 26.036 141.801 25.196C141.801 24.428 141.525 23.828 140.973 23.396C140.421 22.964 139.653 22.592 138.669 22.28C137.685 21.944 136.521 21.584 135.177 21.2C133.569 20.744 132.225 20.24 131.145 19.688C130.065 19.112 129.261 18.392 128.733 17.528C128.205 16.664 127.941 15.584 127.941 14.288C127.941 12.536 128.349 11.072 129.165 9.89601C130.005 8.69601 131.133 7.79601 132.549 7.19601C133.965 6.57201 135.537 6.26001 137.265 6.26001C138.465 6.26001 139.593 6.39201 140.649 6.65601C141.729 6.92001 142.737 7.26801 143.673 7.70001C144.609 8.13201 145.449 8.60001 146.193 9.10401L143.997 13.136Z" fill="white"/>
<path d="M115.498 32.36C113.962 32.36 112.582 32.108 111.358 31.604C110.134 31.076 109.09 30.356 108.226 29.444C107.386 28.532 106.738 27.488 106.282 26.312C105.826 25.136 105.598 23.9 105.598 22.604C105.598 21.284 105.826 20.036 106.282 18.86C106.738 17.684 107.386 16.64 108.226 15.728C109.09 14.816 110.134 14.108 111.358 13.604C112.582 13.076 113.962 12.812 115.498 12.812C117.034 12.812 118.402 13.076 119.602 13.604C120.826 14.108 121.87 14.816 122.734 15.728C123.598 16.64 124.246 17.684 124.678 18.86C125.134 20.036 125.362 21.284 125.362 22.604C125.362 23.9 125.134 25.136 124.678 26.312C124.246 27.488 123.598 28.532 122.734 29.444C121.894 30.356 120.862 31.076 119.638 31.604C118.414 32.108 117.034 32.36 115.498 32.36ZM110.566 22.604C110.566 23.708 110.782 24.692 111.214 25.556C111.646 26.396 112.234 27.056 112.978 27.536C113.722 28.016 114.562 28.256 115.498 28.256C116.41 28.256 117.238 28.016 117.982 27.536C118.726 27.032 119.314 26.36 119.746 25.52C120.202 24.656 120.43 23.672 120.43 22.568C120.43 21.488 120.202 20.516 119.746 19.652C119.314 18.788 118.726 18.116 117.982 17.636C117.238 17.156 116.41 16.916 115.498 16.916C114.562 16.916 113.722 17.168 112.978 17.672C112.234 18.152 111.646 18.824 111.214 19.688C110.782 20.528 110.566 21.5 110.566 22.604Z" fill="white"/>
<path d="M104.52 31.028C104.112 31.196 103.62 31.388 103.044 31.604C102.468 31.82 101.844 31.988 101.172 32.108C100.524 32.252 99.8635 32.324 99.1915 32.324C98.3035 32.324 97.4875 32.168 96.7435 31.856C95.9995 31.544 95.3995 31.052 94.9435 30.38C94.5115 29.684 94.2955 28.784 94.2955 27.68V16.844H91.8115V13.136H94.2955V7.01599H99.1195V13.136H103.08V16.844H99.1195V26.06C99.1435 26.708 99.3235 27.176 99.6595 27.464C99.9955 27.752 100.416 27.896 100.92 27.896C101.424 27.896 101.916 27.812 102.396 27.644C102.876 27.476 103.26 27.332 103.548 27.212L104.52 31.028Z" fill="white"/>
<path d="M70.8519 24.944V13.136H75.6759V23.9C75.6759 25.34 75.9399 26.432 76.4679 27.176C76.9959 27.896 77.7759 28.256 78.8079 28.256C79.4319 28.256 80.0439 28.136 80.6439 27.896C81.2679 27.632 81.8319 27.248 82.3359 26.744C82.8639 26.24 83.3079 25.604 83.6679 24.836V13.136H88.4919V26.6C88.4919 27.104 88.5759 27.464 88.7439 27.68C88.9359 27.896 89.2359 28.028 89.6439 28.076V32C89.1639 32.072 88.7559 32.12 88.4199 32.144C88.1079 32.192 87.8199 32.216 87.5559 32.216C86.6919 32.216 85.9839 32.024 85.4319 31.64C84.9039 31.232 84.5919 30.68 84.4959 29.984L84.3879 28.472C83.5479 29.744 82.4679 30.716 81.1479 31.388C79.8279 32.036 78.3759 32.36 76.7919 32.36C74.8479 32.36 73.3719 31.736 72.3639 30.488C71.3559 29.216 70.8519 27.368 70.8519 24.944Z" fill="white"/>
<path d="M54.612 6.43994H59.652L69.048 31.9999H63.936L61.56 25.6279H52.632L50.292 31.9999H45.18L54.612 6.43994ZM60.66 22.1359L57.132 11.5879L53.46 22.1359H60.66Z" fill="white"/>
<path d="M22.9375 2.9375H7.17102C6.45531 2.9375 5.87508 3.51773 5.87508 4.23344C5.87508 4.94914 6.45531 5.52937 7.17102 5.52937H13.9074C12.4888 6.41811 11.2075 7.50932 10.1043 8.76844H1.29594C0.580234 8.76852 0 9.34883 0 10.0645C0 10.7802 0.580234 11.3605 1.29594 11.3605H8.22953C6.73438 13.8961 5.875 16.8494 5.875 19.9999C5.875 23.6659 7.03742 27.0654 9.01258 29.8497H5.33555C4.61984 29.8497 4.03961 30.4299 4.03961 31.1456C4.03961 31.8613 4.61984 32.4416 5.33555 32.4416H11.2745C12.0845 33.2014 12.9662 33.8809 13.9074 34.4704H1.42961C0.713906 34.4704 0.133672 35.0506 0.133672 35.7663C0.133672 36.482 0.713906 37.0623 1.42961 37.0623H22.9375C32.3459 37.0623 39.9999 29.408 39.9999 19.9998C39.9999 10.5916 32.3458 2.9375 22.9375 2.9375ZM22.9375 34.4705C14.9584 34.4705 8.46703 27.9791 8.46703 20C8.46703 12.0209 14.9584 5.52945 22.9375 5.52945C30.9166 5.52945 37.408 12.0209 37.408 19.9999C37.408 27.979 30.9166 34.4705 22.9375 34.4705Z" fill="#D10014"/>
<path d="M22.9375 9.41467C17.1007 9.41467 12.3521 14.1633 12.3521 20.0001C12.3521 23.4808 14.0411 26.5743 16.6424 28.5047C16.6662 28.5249 16.6899 28.5452 16.7156 28.5637C16.7445 28.5847 16.7741 28.6044 16.804 28.6226C18.5356 29.8579 20.6532 30.5854 22.9375 30.5854C25.2219 30.5854 27.3394 29.8579 29.071 28.6226C29.101 28.6044 29.1306 28.5847 29.1595 28.5637C29.1851 28.5451 29.2089 28.5247 29.2327 28.5047C31.8339 26.5743 33.5229 23.4808 33.5229 20.0001C33.5229 14.1633 28.7743 9.41467 22.9375 9.41467ZM24.2335 12.1123C26.7625 12.5264 28.896 14.1311 30.0374 16.3305L26.6814 17.421C26.0985 16.5773 25.2383 15.9399 24.2335 15.6406V12.1123H24.2335ZM24.8942 20C24.8942 21.0789 24.0164 21.9566 22.9375 21.9566C21.8586 21.9566 20.9809 21.079 20.9809 20C20.9809 18.9211 21.8586 18.0433 22.9375 18.0433C24.0164 18.0433 24.8942 18.9211 24.8942 20ZM21.6415 12.1123V15.6406C20.6366 15.9399 19.7765 16.5773 19.1935 17.421L15.8377 16.3305C16.9791 14.1311 19.1126 12.5263 21.6415 12.1123ZM17.2553 25.6162C15.8273 24.1715 14.9441 22.187 14.9441 20C14.9441 19.5905 14.9752 19.188 15.0349 18.7949L18.3918 19.8857C18.3909 19.9238 18.3889 19.9616 18.3889 20C18.3889 21.0387 18.7396 21.9967 19.3279 22.7633L17.2553 25.6162ZM22.9375 27.9934C21.6484 27.9934 20.4298 27.6864 19.3504 27.1419L21.4235 24.2887C21.8974 24.4565 22.4068 24.5487 22.9375 24.5487C23.4682 24.5487 23.9776 24.4565 24.4515 24.2887L26.5246 27.1419C25.4453 27.6862 24.2267 27.9934 22.9375 27.9934ZM28.6197 25.6162L26.5471 22.7634C27.1353 21.9968 27.4861 21.0388 27.4861 20.0001C27.4861 19.9617 27.4842 19.9239 27.4832 19.8858L30.8401 18.795C30.9006 19.1938 30.931 19.5967 30.9309 20.0001C30.931 22.187 30.0478 24.1714 28.6197 25.6162Z" fill="#D10014"/>
</svg>
