<svg width="40" height="40" viewBox="0 0 40 40" fill="none" xmlns="http://www.w3.org/2000/svg">
<g id="Frame">
<g id="Group">
<path id="Vector" d="M22.9375 2.9375H7.17102C6.45531 2.9375 5.87508 3.51773 5.87508 4.23344C5.87508 4.94914 6.45531 5.52937 7.17102 5.52937H13.9074C12.4888 6.41811 11.2075 7.50932 10.1043 8.76844H1.29594C0.580234 8.76852 0 9.34883 0 10.0645C0 10.7802 0.580234 11.3605 1.29594 11.3605H8.22953C6.73438 13.8961 5.875 16.8494 5.875 19.9999C5.875 23.6659 7.03742 27.0654 9.01258 29.8497H5.33555C4.61984 29.8497 4.03961 30.4299 4.03961 31.1456C4.03961 31.8613 4.61984 32.4416 5.33555 32.4416H11.2745C12.0845 33.2014 12.9662 33.8809 13.9074 34.4704H1.42961C0.713906 34.4704 0.133672 35.0506 0.133672 35.7663C0.133672 36.482 0.713906 37.0623 1.42961 37.0623H22.9375C32.3459 37.0623 39.9999 29.408 39.9999 19.9998C39.9999 10.5916 32.3458 2.9375 22.9375 2.9375ZM22.9375 34.4705C14.9584 34.4705 8.46703 27.9791 8.46703 20C8.46703 12.0209 14.9584 5.52945 22.9375 5.52945C30.9166 5.52945 37.408 12.0209 37.408 19.9999C37.408 27.979 30.9166 34.4705 22.9375 34.4705Z" fill="#D10014"/>
<path id="Vector_2" d="M22.9375 9.41467C17.1007 9.41467 12.3521 14.1633 12.3521 20.0001C12.3521 23.4808 14.0411 26.5743 16.6424 28.5047C16.6662 28.5249 16.6899 28.5452 16.7156 28.5637C16.7445 28.5847 16.7741 28.6044 16.804 28.6226C18.5356 29.8579 20.6532 30.5854 22.9375 30.5854C25.2219 30.5854 27.3394 29.8579 29.071 28.6226C29.101 28.6044 29.1306 28.5847 29.1595 28.5637C29.1851 28.5451 29.2089 28.5247 29.2327 28.5047C31.8339 26.5743 33.5229 23.4808 33.5229 20.0001C33.5229 14.1633 28.7743 9.41467 22.9375 9.41467ZM24.2335 12.1123C26.7625 12.5264 28.896 14.1311 30.0374 16.3305L26.6814 17.421C26.0985 16.5773 25.2383 15.9399 24.2335 15.6406V12.1123H24.2335ZM24.8942 20C24.8942 21.0789 24.0164 21.9566 22.9375 21.9566C21.8586 21.9566 20.9809 21.079 20.9809 20C20.9809 18.9211 21.8586 18.0433 22.9375 18.0433C24.0164 18.0433 24.8942 18.9211 24.8942 20ZM21.6415 12.1123V15.6406C20.6366 15.9399 19.7765 16.5773 19.1935 17.421L15.8377 16.3305C16.9791 14.1311 19.1126 12.5263 21.6415 12.1123ZM17.2553 25.6162C15.8273 24.1715 14.9441 22.187 14.9441 20C14.9441 19.5905 14.9752 19.188 15.0349 18.7949L18.3918 19.8857C18.3909 19.9238 18.3889 19.9616 18.3889 20C18.3889 21.0387 18.7396 21.9967 19.3279 22.7633L17.2553 25.6162ZM22.9375 27.9934C21.6484 27.9934 20.4298 27.6864 19.3504 27.1419L21.4235 24.2887C21.8974 24.4565 22.4068 24.5487 22.9375 24.5487C23.4682 24.5487 23.9776 24.4565 24.4515 24.2887L26.5246 27.1419C25.4453 27.6862 24.2267 27.9934 22.9375 27.9934ZM28.6197 25.6162L26.5471 22.7634C27.1353 21.9968 27.4861 21.0388 27.4861 20.0001C27.4861 19.9617 27.4842 19.9239 27.4832 19.8858L30.8401 18.795C30.9006 19.1938 30.931 19.5967 30.9309 20.0001C30.931 22.187 30.0478 24.1714 28.6197 25.6162Z" fill="#D10014"/>
</g>
</g>
</svg>
